<?xml version="1.0" encoding="iso-8859-1"?>
<!-- Generator: Adobe Illustrator 19.0.0, SVG Export Plug-In . SVG Version: 6.00 Build 0)  -->
<svg version="1.1" id="Layer_1" xmlns="http://www.w3.org/2000/svg" xmlns:xlink="http://www.w3.org/1999/xlink" x="0px" y="0px"
	 viewBox="0 0 503.945 503.945" style="enable-background:new 0 0 503.945 503.945;" xml:space="preserve">
<path style="fill:#FF0D52;" d="M455.173,345.073l48-152.8c1.6-6.4,0.8-13.6-3.2-19.2s-10.4-8.8-16.8-8.8h-462.4
	c-6.4,0-12.8,3.2-16.8,8.8s-4.8,12.8-3.2,18.4l48,152.8c0,3.2,0.8,5.6,2.4,8.8l20.8,67.2c2.4,8.8,10.4,16,20,16h320
	c8.8,0,16.8-7.2,20-15.2l20.8-67.2L455.173,345.073z M73.573,284.273h356.8l-12,40h-333.6L73.573,284.273z M455.173,204.273
	l-11.2,40h-383.2l-11.2-40H455.173z M107.173,396.273l-8.8-32h308l-8.8,32H107.173z"/>
<path style="fill:#E0004B;" d="M499.973,180.273c-4-5.6-10.4-8-16.8-8h-462.4c-6.4,0-12.8,2.4-16.8,8s-4.8,12-3.2,18.4l71.2,227.2
	c0.8,1.6,0.8,3.2,1.6,4c-2.4,2.4-4,5.6-4,8.8c0,7.2,5.6,12.8,12.8,12.8h337.6c7.2,0,12.8-5.6,12.8-12.8c0-3.2-1.6-6.4-4-8.8
	c0.8-1.6,1.6-2.4,1.6-4l20.8-66.4l2.4-8.8l48-152.8C504.773,192.273,503.973,185.873,499.973,180.273z M98.373,372.273h308l-8.8,32
	h-290.4L98.373,372.273z M419.173,332.273h-334.4l-12-40h356.8L419.173,332.273z M443.173,252.273h-382.4l-11.2-40h405.6
	L443.173,252.273z"/>
<path style="fill:#65A5A8;" d="M153.573,187.473c-7.2,7.2-19.2,7.2-26.4,0l-16.8-16.8c-7.2-7.2-7.2-19.2,0-26.4l84.8-86.4
	c7.2-7.2,19.2-7.2,26.4,0l16.8,16.8c7.2,7.2,7.2,19.2,0,26.4L153.573,187.473z"/>
<path style="fill:#72B1B7;" d="M131.973,165.873l85.6-85.6c6.4-6.4,7.2-16.8,1.6-24c-7.2-5.6-17.6-4.8-24,1.6l-85.6,85.6
	c-6.4,6.4-7.2,16.8-1.6,24C115.173,173.073,125.573,173.073,131.973,165.873z"/>
<path style="fill:#579B9B;" d="M156.773,140.273c9.6,9.6-12,47.2-21.6,57.6c-9.6,9.6-25.6,9.6-36,0c-9.6-9.6-9.6-25.6,0-36
	C109.573,152.273,147.173,130.673,156.773,140.273z"/>
<g>
	<path style="opacity:0.2;fill:#83C9CC;enable-background:new    ;" d="M155.173,179.473c-1.6,23.2-24,32.8-37.6,29.6
		s-25.6-16-25.6-29.6s11.2-25.6,25.6-25.6C131.173,154.673,155.973,165.873,155.173,179.473z"/>
	<circle style="fill:#83C9CC;" cx="117.573" cy="179.473" r="25.6"/>
</g>
<g>
	<path style="fill:#72B1B7;" d="M135.173,161.873c9.6,9.6,9.6,25.6,0,36c-9.6,9.6-25.6,9.6-36,0"/>
	<path style="fill:#72B1B7;" d="M350.373,187.473c7.2,7.2,19.2,7.2,26.4,0l16.8-16.8c7.2-7.2,7.2-19.2,0-26.4l-84.8-86.4
		c-7.2-7.2-19.2-7.2-26.4,0l-16.8,16.8c-7.2,7.2-7.2,19.2,0,26.4L350.373,187.473z"/>
</g>
<path style="fill:#65A5A8;" d="M371.973,165.873l-85.6-85.6c-6.4-6.4-7.2-16.8-1.6-24c7.2-5.6,17.6-4.8,24,1.6l85.6,85.6
	c6.4,6.4,7.2,16.8,1.6,24C388.773,173.073,378.373,173.073,371.973,165.873z"/>
<path style="fill:#579B9B;" d="M347.173,140.273c-9.6,9.6,12,47.2,21.6,57.6c9.6,9.6,25.6,9.6,36,0c9.6-9.6,9.6-25.6,0-36
	C394.373,152.273,356.773,130.673,347.173,140.273z"/>
<path style="opacity:0.2;fill:#83C9CC;enable-background:new    ;" d="M348.773,179.473c1.6,23.2,24,32.8,37.6,29.6
	s25.6-16,25.6-29.6s-11.2-25.6-25.6-25.6C372.773,154.673,347.973,165.873,348.773,179.473z"/>
<circle style="fill:#72B1B7;" cx="386.373" cy="179.473" r="25.6"/>
<path style="fill:#83C9CC;" d="M368.773,161.873c-9.6,9.6-9.6,25.6,0,36c9.6,9.6,25.6,9.6,36,0"/>
<g>
</g>
<g>
</g>
<g>
</g>
<g>
</g>
<g>
</g>
<g>
</g>
<g>
</g>
<g>
</g>
<g>
</g>
<g>
</g>
<g>
</g>
<g>
</g>
<g>
</g>
<g>
</g>
<g>
</g>
</svg>
